<?xml version="1.0" encoding="UTF-8" standalone="no"?>
<!DOCTYPE svg PUBLIC "-//W3C//DTD SVG 1.1//EN"
 "http://www.w3.org/Graphics/SVG/1.1/DTD/svg11.dtd">
<!-- Generated by graphviz version 8.0.5 (20230430.1635)
 -->
<!-- Pages: 1 -->
<svg width="861pt" height="404pt"
 viewBox="0.00 0.00 861.44 404.00" xmlns="http://www.w3.org/2000/svg" xmlns:xlink="http://www.w3.org/1999/xlink">
<g id="graph0" class="graph" transform="scale(1 1) rotate(0) translate(4 400)">
<polygon fill="white" stroke="none" points="-4,4 -4,-400 857.44,-400 857.44,4 -4,4"/>
<!-- [root] aws_instance.aws&#45;ec2&#45;machine&#45;first (expand) -->
<g id="node1" class="node">
<title>[root] aws_instance.aws&#45;ec2&#45;machine&#45;first (expand)</title>
<polygon fill="none" stroke="black" points="508.88,-252 292.62,-252 292.62,-216 508.88,-216 508.88,-252"/>
<text text-anchor="middle" x="400.75" y="-228.57" font-family="Times New Roman,serif" font-size="14.00">aws_instance.aws&#45;ec2&#45;machine&#45;first</text>
</g>
<!-- [root] aws_key_pair.ssh_key (expand) -->
<g id="node2" class="node">
<title>[root] aws_key_pair.ssh_key (expand)</title>
<polygon fill="none" stroke="black" points="472.12,-180 329.38,-180 329.38,-144 472.12,-144 472.12,-180"/>
<text text-anchor="middle" x="400.75" y="-156.57" font-family="Times New Roman,serif" font-size="14.00">aws_key_pair.ssh_key</text>
</g>
<!-- [root] aws_instance.aws&#45;ec2&#45;machine&#45;first (expand)&#45;&gt;[root] aws_key_pair.ssh_key (expand) -->
<g id="edge1" class="edge">
<title>[root] aws_instance.aws&#45;ec2&#45;machine&#45;first (expand)&#45;&gt;[root] aws_key_pair.ssh_key (expand)</title>
<path fill="none" stroke="black" d="M400.75,-215.7C400.75,-208.24 400.75,-199.32 400.75,-190.97"/>
<polygon fill="black" stroke="black" points="404.25,-191.1 400.75,-181.1 397.25,-191.1 404.25,-191.1"/>
</g>
<!-- [root] aws_security_group.allow_tls (expand) -->
<g id="node3" class="node">
<title>[root] aws_security_group.allow_tls (expand)</title>
<polygon fill="none" stroke="black" points="311,-180 128.5,-180 128.5,-144 311,-144 311,-180"/>
<text text-anchor="middle" x="219.75" y="-156.57" font-family="Times New Roman,serif" font-size="14.00">aws_security_group.allow_tls</text>
</g>
<!-- [root] aws_instance.aws&#45;ec2&#45;machine&#45;first (expand)&#45;&gt;[root] aws_security_group.allow_tls (expand) -->
<g id="edge2" class="edge">
<title>[root] aws_instance.aws&#45;ec2&#45;machine&#45;first (expand)&#45;&gt;[root] aws_security_group.allow_tls (expand)</title>
<path fill="none" stroke="black" d="M355.54,-215.52C331.05,-206.04 300.59,-194.26 274.72,-184.26"/>
<polygon fill="black" stroke="black" points="276.28,-180.72 265.69,-180.38 273.76,-187.25 276.28,-180.72"/>
</g>
<!-- [root] data.aws_ami.ubuntu (expand) -->
<g id="node4" class="node">
<title>[root] data.aws_ami.ubuntu (expand)</title>
<polygon fill="none" stroke="black" points="623.62,-180 489.88,-180 489.88,-144 623.62,-144 623.62,-180"/>
<text text-anchor="middle" x="556.75" y="-156.57" font-family="Times New Roman,serif" font-size="14.00">data.aws_ami.ubuntu</text>
</g>
<!-- [root] aws_instance.aws&#45;ec2&#45;machine&#45;first (expand)&#45;&gt;[root] data.aws_ami.ubuntu (expand) -->
<g id="edge3" class="edge">
<title>[root] aws_instance.aws&#45;ec2&#45;machine&#45;first (expand)&#45;&gt;[root] data.aws_ami.ubuntu (expand)</title>
<path fill="none" stroke="black" d="M439.71,-215.52C460.45,-206.21 486.15,-194.68 508.18,-184.79"/>
<polygon fill="black" stroke="black" points="509.32,-187.67 517.01,-180.38 506.46,-181.28 509.32,-187.67"/>
</g>
<!-- [root] provider[&quot;registry.terraform.io/hashicorp/aws&quot;] -->
<g id="node5" class="node">
<title>[root] provider[&quot;registry.terraform.io/hashicorp/aws&quot;]</title>
<polygon fill="none" stroke="black" points="400.75,-108 138,-90 400.75,-72 663.5,-90 400.75,-108"/>
<text text-anchor="middle" x="400.75" y="-84.58" font-family="Times New Roman,serif" font-size="14.00">provider[&quot;registry.terraform.io/hashicorp/aws&quot;]</text>
</g>
<!-- [root] aws_key_pair.ssh_key (expand)&#45;&gt;[root] provider[&quot;registry.terraform.io/hashicorp/aws&quot;] -->
<g id="edge4" class="edge">
<title>[root] aws_key_pair.ssh_key (expand)&#45;&gt;[root] provider[&quot;registry.terraform.io/hashicorp/aws&quot;]</title>
<path fill="none" stroke="black" d="M400.75,-143.7C400.75,-136.24 400.75,-127.32 400.75,-118.97"/>
<polygon fill="black" stroke="black" points="404.25,-119.1 400.75,-109.1 397.25,-119.1 404.25,-119.1"/>
</g>
<!-- [root] aws_security_group.allow_tls (expand)&#45;&gt;[root] provider[&quot;registry.terraform.io/hashicorp/aws&quot;] -->
<g id="edge5" class="edge">
<title>[root] aws_security_group.allow_tls (expand)&#45;&gt;[root] provider[&quot;registry.terraform.io/hashicorp/aws&quot;]</title>
<path fill="none" stroke="black" d="M264.96,-143.52C291.6,-133.21 325.31,-120.18 352.47,-109.67"/>
<polygon fill="black" stroke="black" points="353.47,-112.65 361.54,-105.78 350.95,-106.12 353.47,-112.65"/>
</g>
<!-- [root] var.inbound_ports -->
<g id="node9" class="node">
<title>[root] var.inbound_ports</title>
<polygon fill="none" stroke="black" points="113.5,-108 0,-108 0,-72 119.5,-72 119.5,-102 113.5,-108"/>
<polyline fill="none" stroke="black" points="113.5,-108 113.5,-102"/>
<polyline fill="none" stroke="black" points="119.5,-102 113.5,-102"/>
<text text-anchor="middle" x="59.75" y="-84.58" font-family="Times New Roman,serif" font-size="14.00">var.inbound_ports</text>
</g>
<!-- [root] aws_security_group.allow_tls (expand)&#45;&gt;[root] var.inbound_ports -->
<g id="edge6" class="edge">
<title>[root] aws_security_group.allow_tls (expand)&#45;&gt;[root] var.inbound_ports</title>
<path fill="none" stroke="black" d="M179.79,-143.52C158.42,-134.17 131.92,-122.57 109.26,-112.66"/>
<polygon fill="black" stroke="black" points="111.04,-109.18 100.48,-108.38 108.24,-115.6 111.04,-109.18"/>
</g>
<!-- [root] data.aws_ami.ubuntu (expand)&#45;&gt;[root] provider[&quot;registry.terraform.io/hashicorp/aws&quot;] -->
<g id="edge7" class="edge">
<title>[root] data.aws_ami.ubuntu (expand)&#45;&gt;[root] provider[&quot;registry.terraform.io/hashicorp/aws&quot;]</title>
<path fill="none" stroke="black" d="M517.79,-143.52C495.46,-133.5 467.39,-120.9 444.33,-110.55"/>
<polygon fill="black" stroke="black" points="446.02,-107.03 435.46,-106.13 443.15,-113.41 446.02,-107.03"/>
</g>
<!-- [root] var.image_name -->
<g id="node8" class="node">
<title>[root] var.image_name</title>
<polygon fill="none" stroke="black" points="781.75,-108 681.75,-108 681.75,-72 787.75,-72 787.75,-102 781.75,-108"/>
<polyline fill="none" stroke="black" points="781.75,-108 781.75,-102"/>
<polyline fill="none" stroke="black" points="787.75,-102 781.75,-102"/>
<text text-anchor="middle" x="734.75" y="-84.58" font-family="Times New Roman,serif" font-size="14.00">var.image_name</text>
</g>
<!-- [root] data.aws_ami.ubuntu (expand)&#45;&gt;[root] var.image_name -->
<g id="edge8" class="edge">
<title>[root] data.aws_ami.ubuntu (expand)&#45;&gt;[root] var.image_name</title>
<path fill="none" stroke="black" d="M601.21,-143.52C625.19,-134.08 654.99,-122.37 680.35,-112.39"/>
<polygon fill="black" stroke="black" points="681.53,-115.3 689.55,-108.38 678.96,-108.78 681.53,-115.3"/>
</g>
<!-- [root] var.aws_access_key -->
<g id="node6" class="node">
<title>[root] var.aws_access_key</title>
<polygon fill="none" stroke="black" points="387.12,-36 262.38,-36 262.38,0 393.12,0 393.12,-30 387.12,-36"/>
<polyline fill="none" stroke="black" points="387.12,-36 387.12,-30"/>
<polyline fill="none" stroke="black" points="393.12,-30 387.12,-30"/>
<text text-anchor="middle" x="327.75" y="-12.57" font-family="Times New Roman,serif" font-size="14.00">var.aws_access_key</text>
</g>
<!-- [root] provider[&quot;registry.terraform.io/hashicorp/aws&quot;]&#45;&gt;[root] var.aws_access_key -->
<g id="edge11" class="edge">
<title>[root] provider[&quot;registry.terraform.io/hashicorp/aws&quot;]&#45;&gt;[root] var.aws_access_key</title>
<path fill="none" stroke="black" d="M383.82,-72.76C374.85,-64.16 363.63,-53.41 353.6,-43.78"/>
<polygon fill="black" stroke="black" points="356.51,-41.77 346.87,-37.37 351.66,-46.82 356.51,-41.77"/>
</g>
<!-- [root] var.aws_secret_key -->
<g id="node7" class="node">
<title>[root] var.aws_secret_key</title>
<polygon fill="none" stroke="black" points="531.88,-36 411.62,-36 411.62,0 537.88,0 537.88,-30 531.88,-36"/>
<polyline fill="none" stroke="black" points="531.88,-36 531.88,-30"/>
<polyline fill="none" stroke="black" points="537.88,-30 531.88,-30"/>
<text text-anchor="middle" x="474.75" y="-12.57" font-family="Times New Roman,serif" font-size="14.00">var.aws_secret_key</text>
</g>
<!-- [root] provider[&quot;registry.terraform.io/hashicorp/aws&quot;]&#45;&gt;[root] var.aws_secret_key -->
<g id="edge12" class="edge">
<title>[root] provider[&quot;registry.terraform.io/hashicorp/aws&quot;]&#45;&gt;[root] var.aws_secret_key</title>
<path fill="none" stroke="black" d="M417.91,-72.76C427.01,-64.16 438.38,-53.41 448.55,-43.78"/>
<polygon fill="black" stroke="black" points="450.53,-46.79 455.39,-37.37 445.72,-41.7 450.53,-46.79"/>
</g>
<!-- [root] output.ubuntu&#45;ec2&#45;public&#45;ip (expand) -->
<g id="node10" class="node">
<title>[root] output.ubuntu&#45;ec2&#45;public&#45;ip (expand)</title>
<ellipse fill="none" stroke="black" cx="185.75" cy="-306" rx="173.82" ry="18"/>
<text text-anchor="middle" x="185.75" y="-300.57" font-family="Times New Roman,serif" font-size="14.00">[root] output.ubuntu&#45;ec2&#45;public&#45;ip (expand)</text>
</g>
<!-- [root] output.ubuntu&#45;ec2&#45;public&#45;ip (expand)&#45;&gt;[root] aws_instance.aws&#45;ec2&#45;machine&#45;first (expand) -->
<g id="edge9" class="edge">
<title>[root] output.ubuntu&#45;ec2&#45;public&#45;ip (expand)&#45;&gt;[root] aws_instance.aws&#45;ec2&#45;machine&#45;first (expand)</title>
<path fill="none" stroke="black" d="M236.97,-288.32C267.01,-278.54 305.21,-266.11 337.16,-255.7"/>
<polygon fill="black" stroke="black" points="337.87,-258.83 346.3,-252.4 335.7,-252.17 337.87,-258.83"/>
</g>
<!-- [root] provider[&quot;registry.terraform.io/hashicorp/aws&quot;] (close) -->
<g id="node11" class="node">
<title>[root] provider[&quot;registry.terraform.io/hashicorp/aws&quot;] (close)</title>
<ellipse fill="none" stroke="black" cx="615.75" cy="-306" rx="237.69" ry="18"/>
<text text-anchor="middle" x="615.75" y="-300.57" font-family="Times New Roman,serif" font-size="14.00">[root] provider[&quot;registry.terraform.io/hashicorp/aws&quot;] (close)</text>
</g>
<!-- [root] provider[&quot;registry.terraform.io/hashicorp/aws&quot;] (close)&#45;&gt;[root] aws_instance.aws&#45;ec2&#45;machine&#45;first (expand) -->
<g id="edge10" class="edge">
<title>[root] provider[&quot;registry.terraform.io/hashicorp/aws&quot;] (close)&#45;&gt;[root] aws_instance.aws&#45;ec2&#45;machine&#45;first (expand)</title>
<path fill="none" stroke="black" d="M563.43,-287.97C533.72,-278.29 496.31,-266.11 464.85,-255.87"/>
<polygon fill="black" stroke="black" points="466.02,-252.24 455.43,-252.48 463.85,-258.9 466.02,-252.24"/>
</g>
<!-- [root] root -->
<g id="node12" class="node">
<title>[root] root</title>
<ellipse fill="none" stroke="black" cx="400.75" cy="-378" rx="50.07" ry="18"/>
<text text-anchor="middle" x="400.75" y="-372.57" font-family="Times New Roman,serif" font-size="14.00">[root] root</text>
</g>
<!-- [root] root&#45;&gt;[root] output.ubuntu&#45;ec2&#45;public&#45;ip (expand) -->
<g id="edge13" class="edge">
<title>[root] root&#45;&gt;[root] output.ubuntu&#45;ec2&#45;public&#45;ip (expand)</title>
<path fill="none" stroke="black" d="M364.76,-365.28C332.75,-354.86 285.24,-339.39 247.22,-327.01"/>
<polygon fill="black" stroke="black" points="248.35,-323.38 237.76,-323.61 246.19,-330.03 248.35,-323.38"/>
</g>
<!-- [root] root&#45;&gt;[root] provider[&quot;registry.terraform.io/hashicorp/aws&quot;] (close) -->
<g id="edge14" class="edge">
<title>[root] root&#45;&gt;[root] provider[&quot;registry.terraform.io/hashicorp/aws&quot;] (close)</title>
<path fill="none" stroke="black" d="M436.74,-365.28C468.42,-354.97 515.28,-339.71 553.11,-327.39"/>
<polygon fill="black" stroke="black" points="554.1,-330.43 562.52,-324 551.93,-323.77 554.1,-330.43"/>
</g>
</g>
</svg>
